<mxfile host="app.diagrams.net" modified="2024-02-21T07:19:55.727Z" agent="Mozilla/5.0 (Macintosh; Intel Mac OS X 10_15_7) AppleWebKit/537.36 (KHTML, like Gecko) Chrome/121.0.0.0 Safari/537.36" etag="LOcAPsgCkEX_-j2CNrrY" version="23.1.5" type="github">
  <diagram name="第 1 页" id="HRI6HFqbembIRXhMBwum">
    <mxGraphModel dx="1026" dy="557" grid="1" gridSize="10" guides="1" tooltips="1" connect="1" arrows="1" fold="1" page="1" pageScale="1" pageWidth="827" pageHeight="1169" math="0" shadow="0">
      <root>
        <mxCell id="0" />
        <mxCell id="1" parent="0" />
        <mxCell id="NOwIhGnmyXpUeejoqsLg-1" value="Redis数据类型" style="rounded=0;whiteSpace=wrap;html=1;" vertex="1" parent="1">
          <mxGeometry x="90" y="240" width="120" height="60" as="geometry" />
        </mxCell>
        <mxCell id="NOwIhGnmyXpUeejoqsLg-2" value="string" style="rounded=1;whiteSpace=wrap;html=1;" vertex="1" parent="1">
          <mxGeometry x="250" y="100" width="120" height="60" as="geometry" />
        </mxCell>
        <mxCell id="NOwIhGnmyXpUeejoqsLg-3" value="key: value" style="text;html=1;align=center;verticalAlign=middle;whiteSpace=wrap;rounded=0;" vertex="1" parent="1">
          <mxGeometry x="280" y="70" width="60" height="30" as="geometry" />
        </mxCell>
        <mxCell id="NOwIhGnmyXpUeejoqsLg-8" value="" style="endArrow=classic;html=1;rounded=0;" edge="1" parent="1">
          <mxGeometry width="50" height="50" relative="1" as="geometry">
            <mxPoint x="370" y="130" as="sourcePoint" />
            <mxPoint x="430" y="70" as="targetPoint" />
          </mxGeometry>
        </mxCell>
        <mxCell id="NOwIhGnmyXpUeejoqsLg-34" value="" style="group" vertex="1" connectable="0" parent="1">
          <mxGeometry x="450" y="10" width="460" height="130" as="geometry" />
        </mxCell>
        <mxCell id="NOwIhGnmyXpUeejoqsLg-6" value="int" style="rounded=1;whiteSpace=wrap;html=1;" vertex="1" parent="NOwIhGnmyXpUeejoqsLg-34">
          <mxGeometry width="75" height="35" as="geometry" />
        </mxCell>
        <mxCell id="NOwIhGnmyXpUeejoqsLg-7" value="SDS" style="rounded=1;whiteSpace=wrap;html=1;" vertex="1" parent="NOwIhGnmyXpUeejoqsLg-34">
          <mxGeometry y="60" width="75" height="35" as="geometry" />
        </mxCell>
        <mxCell id="NOwIhGnmyXpUeejoqsLg-9" value="raw" style="rounded=1;whiteSpace=wrap;html=1;" vertex="1" parent="NOwIhGnmyXpUeejoqsLg-34">
          <mxGeometry x="120" y="35" width="75" height="35" as="geometry" />
        </mxCell>
        <mxCell id="NOwIhGnmyXpUeejoqsLg-15" style="edgeStyle=orthogonalEdgeStyle;rounded=0;orthogonalLoop=1;jettySize=auto;html=1;exitX=1;exitY=0.5;exitDx=0;exitDy=0;entryX=0;entryY=0.5;entryDx=0;entryDy=0;" edge="1" parent="NOwIhGnmyXpUeejoqsLg-34" source="NOwIhGnmyXpUeejoqsLg-7" target="NOwIhGnmyXpUeejoqsLg-9">
          <mxGeometry relative="1" as="geometry" />
        </mxCell>
        <mxCell id="NOwIhGnmyXpUeejoqsLg-10" value="embstr" style="rounded=1;whiteSpace=wrap;html=1;" vertex="1" parent="NOwIhGnmyXpUeejoqsLg-34">
          <mxGeometry x="120" y="80" width="75" height="35" as="geometry" />
        </mxCell>
        <mxCell id="NOwIhGnmyXpUeejoqsLg-16" style="edgeStyle=orthogonalEdgeStyle;rounded=0;orthogonalLoop=1;jettySize=auto;html=1;exitX=1;exitY=0.5;exitDx=0;exitDy=0;entryX=0;entryY=0.5;entryDx=0;entryDy=0;" edge="1" parent="NOwIhGnmyXpUeejoqsLg-34" source="NOwIhGnmyXpUeejoqsLg-7" target="NOwIhGnmyXpUeejoqsLg-10">
          <mxGeometry relative="1" as="geometry" />
        </mxCell>
        <mxCell id="NOwIhGnmyXpUeejoqsLg-19" value="" style="group" vertex="1" connectable="0" parent="NOwIhGnmyXpUeejoqsLg-34">
          <mxGeometry x="220" y="80" width="120" height="35" as="geometry" />
        </mxCell>
        <mxCell id="NOwIhGnmyXpUeejoqsLg-17" value="redisObject" style="rounded=0;whiteSpace=wrap;html=1;" vertex="1" parent="NOwIhGnmyXpUeejoqsLg-19">
          <mxGeometry width="75" height="35" as="geometry" />
        </mxCell>
        <mxCell id="NOwIhGnmyXpUeejoqsLg-18" value="SDS" style="rounded=0;whiteSpace=wrap;html=1;" vertex="1" parent="NOwIhGnmyXpUeejoqsLg-19">
          <mxGeometry x="75" width="45" height="35" as="geometry" />
        </mxCell>
        <mxCell id="NOwIhGnmyXpUeejoqsLg-20" value="" style="group" vertex="1" connectable="0" parent="NOwIhGnmyXpUeejoqsLg-34">
          <mxGeometry x="300" y="80" width="120" height="35" as="geometry" />
        </mxCell>
        <mxCell id="NOwIhGnmyXpUeejoqsLg-22" value="data" style="rounded=0;whiteSpace=wrap;html=1;" vertex="1" parent="NOwIhGnmyXpUeejoqsLg-20">
          <mxGeometry x="75" width="45" height="35" as="geometry" />
        </mxCell>
        <mxCell id="NOwIhGnmyXpUeejoqsLg-23" style="edgeStyle=orthogonalEdgeStyle;rounded=0;orthogonalLoop=1;jettySize=auto;html=1;exitX=1;exitY=0.5;exitDx=0;exitDy=0;entryX=0;entryY=0.5;entryDx=0;entryDy=0;" edge="1" parent="NOwIhGnmyXpUeejoqsLg-34" source="NOwIhGnmyXpUeejoqsLg-18" target="NOwIhGnmyXpUeejoqsLg-22">
          <mxGeometry relative="1" as="geometry" />
        </mxCell>
        <mxCell id="NOwIhGnmyXpUeejoqsLg-24" value="SDS" style="rounded=0;whiteSpace=wrap;html=1;" vertex="1" parent="NOwIhGnmyXpUeejoqsLg-34">
          <mxGeometry x="320" y="32.5" width="45" height="35" as="geometry" />
        </mxCell>
        <mxCell id="NOwIhGnmyXpUeejoqsLg-25" value="" style="group" vertex="1" connectable="0" parent="NOwIhGnmyXpUeejoqsLg-34">
          <mxGeometry x="340" y="32.5" width="120" height="35" as="geometry" />
        </mxCell>
        <mxCell id="NOwIhGnmyXpUeejoqsLg-26" value="data" style="rounded=0;whiteSpace=wrap;html=1;" vertex="1" parent="NOwIhGnmyXpUeejoqsLg-25">
          <mxGeometry x="75" width="45" height="35" as="geometry" />
        </mxCell>
        <mxCell id="NOwIhGnmyXpUeejoqsLg-27" style="edgeStyle=orthogonalEdgeStyle;rounded=0;orthogonalLoop=1;jettySize=auto;html=1;exitX=1;exitY=0.5;exitDx=0;exitDy=0;entryX=0;entryY=0.5;entryDx=0;entryDy=0;" edge="1" parent="NOwIhGnmyXpUeejoqsLg-34" source="NOwIhGnmyXpUeejoqsLg-24" target="NOwIhGnmyXpUeejoqsLg-26">
          <mxGeometry relative="1" as="geometry" />
        </mxCell>
        <mxCell id="NOwIhGnmyXpUeejoqsLg-31" style="edgeStyle=orthogonalEdgeStyle;rounded=0;orthogonalLoop=1;jettySize=auto;html=1;exitX=1;exitY=0.5;exitDx=0;exitDy=0;" edge="1" parent="NOwIhGnmyXpUeejoqsLg-34" source="NOwIhGnmyXpUeejoqsLg-29" target="NOwIhGnmyXpUeejoqsLg-24">
          <mxGeometry relative="1" as="geometry" />
        </mxCell>
        <mxCell id="NOwIhGnmyXpUeejoqsLg-29" value="redisObject" style="rounded=0;whiteSpace=wrap;html=1;" vertex="1" parent="NOwIhGnmyXpUeejoqsLg-34">
          <mxGeometry x="220" y="32.5" width="75" height="35" as="geometry" />
        </mxCell>
        <mxCell id="NOwIhGnmyXpUeejoqsLg-36" value="小于" style="text;html=1;align=center;verticalAlign=middle;whiteSpace=wrap;rounded=0;" vertex="1" parent="NOwIhGnmyXpUeejoqsLg-34">
          <mxGeometry x="60" y="100" width="60" height="30" as="geometry" />
        </mxCell>
        <mxCell id="NOwIhGnmyXpUeejoqsLg-37" style="edgeStyle=orthogonalEdgeStyle;rounded=0;orthogonalLoop=1;jettySize=auto;html=1;exitX=0.5;exitY=1;exitDx=0;exitDy=0;" edge="1" parent="NOwIhGnmyXpUeejoqsLg-34" source="NOwIhGnmyXpUeejoqsLg-36" target="NOwIhGnmyXpUeejoqsLg-36">
          <mxGeometry relative="1" as="geometry" />
        </mxCell>
        <mxCell id="NOwIhGnmyXpUeejoqsLg-38" value="大于" style="text;html=1;align=center;verticalAlign=middle;whiteSpace=wrap;rounded=0;" vertex="1" parent="NOwIhGnmyXpUeejoqsLg-34">
          <mxGeometry x="60" y="30" width="60" height="30" as="geometry" />
        </mxCell>
        <mxCell id="NOwIhGnmyXpUeejoqsLg-35" value="底层数据结构" style="text;html=1;align=center;verticalAlign=middle;whiteSpace=wrap;rounded=0;" vertex="1" parent="1">
          <mxGeometry x="370" y="90" width="76" height="25" as="geometry" />
        </mxCell>
        <mxCell id="NOwIhGnmyXpUeejoqsLg-39" value="" style="endArrow=classic;html=1;rounded=0;" edge="1" parent="1">
          <mxGeometry width="50" height="50" relative="1" as="geometry">
            <mxPoint x="370" y="130" as="sourcePoint" />
            <mxPoint x="420" y="270" as="targetPoint" />
          </mxGeometry>
        </mxCell>
        <mxCell id="NOwIhGnmyXpUeejoqsLg-40" value="应用场景" style="text;html=1;align=center;verticalAlign=middle;whiteSpace=wrap;rounded=0;" vertex="1" parent="1">
          <mxGeometry x="384" y="140" width="60" height="30" as="geometry" />
        </mxCell>
        <mxCell id="NOwIhGnmyXpUeejoqsLg-41" value="JSON对象" style="rounded=1;whiteSpace=wrap;html=1;" vertex="1" parent="1">
          <mxGeometry x="444" y="160" width="75" height="35" as="geometry" />
        </mxCell>
        <mxCell id="NOwIhGnmyXpUeejoqsLg-42" value="计数" style="rounded=1;whiteSpace=wrap;html=1;" vertex="1" parent="1">
          <mxGeometry x="444" y="210" width="75" height="35" as="geometry" />
        </mxCell>
        <mxCell id="NOwIhGnmyXpUeejoqsLg-48" value="共享session" style="rounded=1;whiteSpace=wrap;html=1;fillColor=#f8cecc;strokeColor=#b85450;" vertex="1" parent="1">
          <mxGeometry x="444" y="315" width="75" height="35" as="geometry" />
        </mxCell>
        <mxCell id="NOwIhGnmyXpUeejoqsLg-49" value="" style="group" vertex="1" connectable="0" parent="1">
          <mxGeometry x="444" y="240" width="191" height="85" as="geometry" />
        </mxCell>
        <mxCell id="NOwIhGnmyXpUeejoqsLg-43" value="setNx锁" style="rounded=1;whiteSpace=wrap;html=1;fillColor=#f8cecc;strokeColor=#b85450;" vertex="1" parent="NOwIhGnmyXpUeejoqsLg-49">
          <mxGeometry y="22.5" width="75" height="35" as="geometry" />
        </mxCell>
        <mxCell id="NOwIhGnmyXpUeejoqsLg-44" value="key不存在&lt;br&gt;加锁成功" style="rounded=1;whiteSpace=wrap;html=1;" vertex="1" parent="NOwIhGnmyXpUeejoqsLg-49">
          <mxGeometry x="116" width="75" height="35" as="geometry" />
        </mxCell>
        <mxCell id="NOwIhGnmyXpUeejoqsLg-46" style="edgeStyle=orthogonalEdgeStyle;rounded=0;orthogonalLoop=1;jettySize=auto;html=1;exitX=1;exitY=0.5;exitDx=0;exitDy=0;entryX=0;entryY=0.5;entryDx=0;entryDy=0;" edge="1" parent="NOwIhGnmyXpUeejoqsLg-49" source="NOwIhGnmyXpUeejoqsLg-43" target="NOwIhGnmyXpUeejoqsLg-44">
          <mxGeometry relative="1" as="geometry" />
        </mxCell>
        <mxCell id="NOwIhGnmyXpUeejoqsLg-45" value="key存在&lt;br&gt;加锁失败" style="rounded=1;whiteSpace=wrap;html=1;" vertex="1" parent="NOwIhGnmyXpUeejoqsLg-49">
          <mxGeometry x="116" y="50" width="75" height="35" as="geometry" />
        </mxCell>
        <mxCell id="NOwIhGnmyXpUeejoqsLg-47" style="edgeStyle=orthogonalEdgeStyle;rounded=0;orthogonalLoop=1;jettySize=auto;html=1;exitX=1;exitY=0.5;exitDx=0;exitDy=0;entryX=0;entryY=0.5;entryDx=0;entryDy=0;" edge="1" parent="NOwIhGnmyXpUeejoqsLg-49" source="NOwIhGnmyXpUeejoqsLg-43" target="NOwIhGnmyXpUeejoqsLg-45">
          <mxGeometry relative="1" as="geometry" />
        </mxCell>
        <mxCell id="NOwIhGnmyXpUeejoqsLg-52" value="" style="endArrow=classic;html=1;rounded=0;" edge="1" parent="1">
          <mxGeometry width="50" height="50" relative="1" as="geometry">
            <mxPoint x="519" y="330" as="sourcePoint" />
            <mxPoint x="700" y="330" as="targetPoint" />
          </mxGeometry>
        </mxCell>
        <mxCell id="NOwIhGnmyXpUeejoqsLg-63" style="edgeStyle=orthogonalEdgeStyle;rounded=0;orthogonalLoop=1;jettySize=auto;html=1;exitX=0;exitY=0.3333333333333333;exitDx=0;exitDy=0;exitPerimeter=0;" edge="1" parent="1" source="NOwIhGnmyXpUeejoqsLg-53">
          <mxGeometry relative="1" as="geometry">
            <mxPoint x="780" y="350" as="targetPoint" />
          </mxGeometry>
        </mxCell>
        <mxCell id="NOwIhGnmyXpUeejoqsLg-64" style="edgeStyle=orthogonalEdgeStyle;rounded=0;orthogonalLoop=1;jettySize=auto;html=1;exitX=0.5;exitY=0;exitDx=0;exitDy=0;exitPerimeter=0;entryX=0.5;entryY=1;entryDx=0;entryDy=0;" edge="1" parent="1" source="NOwIhGnmyXpUeejoqsLg-53" target="NOwIhGnmyXpUeejoqsLg-59">
          <mxGeometry relative="1" as="geometry" />
        </mxCell>
        <mxCell id="NOwIhGnmyXpUeejoqsLg-65" style="edgeStyle=orthogonalEdgeStyle;rounded=0;orthogonalLoop=1;jettySize=auto;html=1;exitX=1;exitY=0.3333333333333333;exitDx=0;exitDy=0;exitPerimeter=0;entryX=0.5;entryY=1;entryDx=0;entryDy=0;" edge="1" parent="1" source="NOwIhGnmyXpUeejoqsLg-53" target="NOwIhGnmyXpUeejoqsLg-60">
          <mxGeometry relative="1" as="geometry" />
        </mxCell>
        <mxCell id="NOwIhGnmyXpUeejoqsLg-53" value="Actor" style="shape=umlActor;verticalLabelPosition=bottom;verticalAlign=top;html=1;outlineConnect=0;" vertex="1" parent="1">
          <mxGeometry x="850" y="370" width="30" height="60" as="geometry" />
        </mxCell>
        <mxCell id="NOwIhGnmyXpUeejoqsLg-67" style="edgeStyle=orthogonalEdgeStyle;rounded=0;orthogonalLoop=1;jettySize=auto;html=1;exitX=0.5;exitY=0;exitDx=0;exitDy=0;entryX=0;entryY=0.5;entryDx=0;entryDy=0;" edge="1" parent="1" source="NOwIhGnmyXpUeejoqsLg-58" target="NOwIhGnmyXpUeejoqsLg-66">
          <mxGeometry relative="1" as="geometry" />
        </mxCell>
        <mxCell id="NOwIhGnmyXpUeejoqsLg-58" value="服务器1" style="rounded=1;whiteSpace=wrap;html=1;" vertex="1" parent="1">
          <mxGeometry x="740" y="310" width="75" height="35" as="geometry" />
        </mxCell>
        <mxCell id="NOwIhGnmyXpUeejoqsLg-68" style="edgeStyle=orthogonalEdgeStyle;rounded=0;orthogonalLoop=1;jettySize=auto;html=1;exitX=0.5;exitY=0;exitDx=0;exitDy=0;entryX=0.5;entryY=1;entryDx=0;entryDy=0;" edge="1" parent="1" source="NOwIhGnmyXpUeejoqsLg-59" target="NOwIhGnmyXpUeejoqsLg-66">
          <mxGeometry relative="1" as="geometry" />
        </mxCell>
        <mxCell id="NOwIhGnmyXpUeejoqsLg-59" value="服务器2" style="rounded=1;whiteSpace=wrap;html=1;" vertex="1" parent="1">
          <mxGeometry x="827" y="310" width="75" height="35" as="geometry" />
        </mxCell>
        <mxCell id="NOwIhGnmyXpUeejoqsLg-69" style="edgeStyle=orthogonalEdgeStyle;rounded=0;orthogonalLoop=1;jettySize=auto;html=1;exitX=0.5;exitY=0;exitDx=0;exitDy=0;entryX=1;entryY=0.5;entryDx=0;entryDy=0;" edge="1" parent="1" source="NOwIhGnmyXpUeejoqsLg-60" target="NOwIhGnmyXpUeejoqsLg-66">
          <mxGeometry relative="1" as="geometry" />
        </mxCell>
        <mxCell id="NOwIhGnmyXpUeejoqsLg-60" value="服务器3" style="rounded=1;whiteSpace=wrap;html=1;" vertex="1" parent="1">
          <mxGeometry x="920" y="310" width="75" height="35" as="geometry" />
        </mxCell>
        <mxCell id="NOwIhGnmyXpUeejoqsLg-66" value="Redis Session" style="ellipse;whiteSpace=wrap;html=1;" vertex="1" parent="1">
          <mxGeometry x="827" y="230" width="75" height="35" as="geometry" />
        </mxCell>
      </root>
    </mxGraphModel>
  </diagram>
</mxfile>
